<?xml version="1.0" encoding="UTF-8"?>
<svg id="Layer_1" data-name="Layer 1" xmlns="http://www.w3.org/2000/svg" xmlns:xlink="http://www.w3.org/1999/xlink" viewBox="0 0 2300 1500">
  <defs>
    <style>
      .cls-1 {
        fill: #fff;
      }

      .cls-1, .cls-2, .cls-3, .cls-4, .cls-5, .cls-6, .cls-7, .cls-8, .cls-9, .cls-10, .cls-11, .cls-12, .cls-13, .cls-14, .cls-15, .cls-16, .cls-17 {
        stroke-width: 0px;
      }

      .cls-1, .cls-3, .cls-4, .cls-5, .cls-6, .cls-9, .cls-10, .cls-11, .cls-12, .cls-13, .cls-16 {
        fill-rule: evenodd;
      }

      .cls-2, .cls-12 {
        fill: #000;
      }

      .cls-3 {
        fill: #36a2fd;
      }

      .cls-4, .cls-17 {
        fill: #80003a;
      }

      .cls-5 {
        fill: #1c015c;
      }

      .cls-6 {
        fill: #999;
      }

      .cls-7 {
        fill: none;
      }

      .cls-8 {
        fill: #140042;
      }

      .cls-9 {
        fill: #e90a2d;
      }

      .cls-10 {
        fill: #eb1775;
      }

      .cls-11, .cls-15 {
        fill: #0c0413;
      }

      .cls-13 {
        fill: #037adb;
      }

      .cls-18 {
        clip-path: url(#clippath);
      }

      .cls-14 {
        fill: #ffab00;
      }

      .cls-16 {
        fill: #310796;
      }
    </style>
    <clipPath id="clippath">
      <rect class="cls-7" width="2300" height="1500"/>
    </clipPath>
  </defs>
  <g class="cls-18">
    <g>
      <rect class="cls-14" x="-56.181" width="2404.178" height="1520"/>
      <g>
        <path class="cls-10" d="M1083.077,230.768s-6.251,97.359-18.482,113.109c-12.23,15.749,33.817,49.752,87.69,55.97,51.599,5.956,125.133-7.693,138.694-67.033,2.571-11.248,2.25-20.246,2.25-20.246,0,0,16.068,1.285,23.46-8.034,7.391-9.32-10.284-19.603-12.533-35.351-2.25-15.747,1.607-19.282,10.283-33.101,8.678-13.819,1.607-19.603,1.607-19.603,0,0-41.458-24.423-85.807-26.352-44.349-1.928-147.162,40.641-147.162,40.641Z"/>
        <path class="cls-9" d="M1076.084,299.357l209.134,49.863s-7.154,18.857-19.451,24.565c-12.297,5.707-194.689-47.153-194.689-47.153l2.269-10.664s3.895-16.335,2.737-16.612Z"/>
        <path class="cls-11" d="M1077.607,288.113s16.682,6.054,38.349,5.653,35.298-22.545,35.298-22.545l20.876-42.455,21.253,30.224,28.099-3.341s24.429-29.376,22.223-37.659c-2.206-8.284-36.668-7.68-75.587-7.68s-85.039,20.459-85.039,20.459l-5.47,57.344Z"/>
        <path class="cls-16" d="M1314.442,186.588s82.684,10.26,86.54,13.473c3.857,3.214-14.783,19.283-59.774,19.283s-95.926,5.188-110.951-6.726c-15.027-11.914,84.186-26.031,84.186-26.031Z"/>
        <path class="cls-3" d="M1079.842,230.936s94.482-4.498,146.545-17.353c52.062-12.855,88.055-26.995,88.055-26.995,0,0,6.038-130.791-139.221-111.579-145.26,19.212-95.379,155.928-95.379,155.928Z"/>
        <path class="cls-10" d="M1188.783,232.87s-10.926-22.813-27.959-14.784c-17.034,8.03-19.604,26.675-12.856,44.993,6.75,18.319,13.819,28.924,31.174,28.603,17.354-.321,17.996-21.532,9.64-58.812Z"/>
        <path class="cls-10" d="M828.311,483.618l-78.449-31.018c-51.253,61.833-121.699,168.148-145.126,238.43-16.698,50.093-27.508,216.085,57.946,227.872,85.454,11.786,190.551-90.365,190.551-90.365,0,0,84.469-276.004-24.922-344.919Z"/>
        <path class="cls-9" d="M732.636,636.731l68.247,200.553s-32.099,49.752-81.049,59.382-93.849,3.124-93.849,3.124c0,0,22.737,36.304,94.203,12.778,71.465-23.526,122.087-74.075,122.087-74.075,0,0-91.712-214.071-94.751-212.664-3.039,1.408-14.887,10.9-14.887,10.9Z"/>
        <path class="cls-17" d="M680.361,697.676c-1.694,0-3.381-.694-4.598-2.058-2.266-2.539-2.047-6.435.492-8.702,27.404-24.467,84.746-88.102,92.487-114.509,8.553-29.183,49.005-84.677,50.723-87.026,2.011-2.746,5.866-3.348,8.611-1.334,2.747,2.009,3.345,5.865,1.335,8.611-.408.558-40.894,56.096-48.842,83.216-8.843,30.172-68.125,95.255-96.104,120.236-1.175,1.05-2.642,1.566-4.103,1.566Z"/>
        <path class="cls-16" d="M743.045,624.129l77.562,247.267s24.691-11.971,33.303-31.979c15.028-34.911,18.841-94.298,27.861-157.271,14.189-99.066-47.304-202.353-47.304-202.353,0,0-46.036,36.28-91.423,144.337Z"/>
        <path class="cls-1" d="M761.18,584.538l81.329,271.023,14.372-6.506-77.734-297.652c-6.475,10.913-12.471,21.956-17.968,33.135Z"/>
        <path class="cls-5" d="M824.437,489.02s-38.036,20.467-32.42,95.898,50.257,253.576,50.257,253.576c0,0,32.876-40.835,28-122.936-4.875-82.101-22.085-239.771-45.838-226.538Z"/>
        <path class="cls-6" d="M795.065,612.351c11.622,84.121,47.21,226.144,47.21,226.144,0,0,3.635-4.52,8.307-13.563l-55.517-212.581Z"/>
        <path class="cls-16" d="M877.501,1126.314s-55.783,53.752-63.808,148.443c-8.025,94.691,3.21,86.667,3.21,86.667l592.216,13.64s16.865-111.663-27.827-210.34c-44.691-98.677-503.791-38.41-503.791-38.41Z"/>
        <path class="cls-8" d="M1003.405,1363.695c-1.768,0-3.354-1.216-3.747-3.012-.179-.809-1.688-8.677-.083-35.152,1.619-26.738,9.296-58.727,9.622-60.078.5-2.066,2.578-3.351,4.649-2.837,2.067.498,3.338,2.58,2.84,4.649-.078.323-7.844,32.688-9.421,58.73-1.539,25.39-.089,32.998-.075,33.073.415,2.072-.914,4.109-2.981,4.542-.27.056-.538.085-.802.085Z"/>
        <path class="cls-3" d="M977.827,389.581s-110.749,27.362-146.859,86.744c-36.11,59.382-16.054,174.933,1.6,268.019,17.654,93.086,6.419,171.727,6.419,219.875s38.513,162.095,38.513,162.095c0,0,136.418,25.678,301.726,41.728,165.307,16.05,202.22,3.209,202.22,3.209,0,0-7.476-309.51-3.211-304.935,4.265,4.575-108.334-47.347-114.754-117.963-6.42-70.617-4.818-318.178-30.496-345.463-25.678-27.284-192.993-37.319-255.159-13.309Z"/>
        <path class="cls-13" d="M1109.821,553.489s-12.255,149.861-7.191,279.329c4.075,104.186,7.282,203.722,22.947,226.535,35.135,51.163,97.368,34.33,131.072,42.354,33.704,8.024,121.692-38.544,121.692-38.544l.065-36.754s-117.337-71.802-144.095-115.809c-26.758-44.007-61.923-129.076-61.923-129.076l-62.569-228.034Z"/>
        <g>
          <path class="cls-12" d="M1288.492,801.885c.525,11.634,1.011,22.965,1.481,33.932,3.03,70.674,5.412,126.204,13.404,150.055,12.579,37.544,15.358,144.555,15.972,190.241-1.255.002-2.533,0-3.835-.004-.61-45.544-3.361-151.956-15.778-189.017-8.161-24.36-10.554-80.136-13.598-151.122-.541-12.599-1.102-25.68-1.719-39.149,1.317,1.713,2.677,3.401,4.074,5.066Z"/>
          <path class="cls-12" d="M1209.192,390.677c-13.853,38.293-28.578,106.103-16.139,206.619,10.364,83.759,14,168.544,17.001,238.521,3.03,70.674,5.412,126.204,13.404,150.055,12.308,36.733,15.232,139.958,15.928,187.191l-3.838-.263c-.697-47.194-3.606-149.517-15.732-185.709-8.161-24.36-10.555-80.136-13.598-151.122-2.994-69.841-6.623-154.461-16.987-238.207-12.485-100.891,2.296-169.311,16.318-208.193,1.247.363,2.457.732,3.643,1.108Z"/>
          <path class="cls-12" d="M1126.413,377.453c-14.856,34.74-35.365,106.503-21.34,219.843,10.364,83.759,14,168.544,17.001,238.521,3.03,70.674,5.412,126.204,13.403,150.055,11.664,34.811,14.901,129.342,15.8,179.339l-3.841-.407c-.903-49.921-4.122-143.452-15.601-177.713-8.162-24.36-10.555-80.136-13.598-151.122-2.994-69.841-6.623-154.461-16.987-238.207-13.937-112.634,6.104-184.793,21.137-220.565,1.346.081,2.687.167,4.025.256Z"/>
          <path class="cls-12" d="M891.693,423.675c-13.959,22.978-43.905,87.537-27.703,199.714,10.373,71.811,14.008,144.447,17.008,204.397,3.027,60.5,5.409,108.038,13.374,128.405,14.321,36.621,15.963,150.11,16.152,175.948l-3.841-.654c-.21-26.964-1.922-138.171-15.893-173.895-8.187-20.935-10.582-68.758-13.628-129.624-2.994-59.839-6.624-132.34-16.979-204.035-15.156-104.933,9.818-168.945,24.924-196.491,2.184-1.289,4.38-2.545,6.586-3.766Z"/>
          <path class="cls-12" d="M959.069,395.071c-14.702,28.205-40.548,96.73-25.244,211.055,10.375,77.498,14.009,155.841,17.008,220.503,3.029,65.305,5.41,116.618,13.388,138.627,12.803,35.321,15.463,137.029,16.016,178.011l-3.843-.579c-.566-41.205-3.229-141.49-15.784-176.124-8.175-22.556-10.569-74.131-13.614-139.77-2.995-64.583-6.626-142.832-16.979-220.172-14.821-110.714,8.753-179.161,23.91-209.862,1.793-.602,3.508-1.164,5.14-1.689Z"/>
          <path class="cls-12" d="M1038.407,377.858c-14.841,34.895-35.134,106.545-21.165,219.438,10.365,83.759,14,168.543,17.001,238.521,3.03,70.674,5.412,126.203,13.403,150.054,10.901,32.537,14.442,117.241,15.592,168.996l-3.845-.499c-1.154-51.585-4.668-135.28-15.389-167.278-8.162-24.36-10.555-80.135-13.598-151.122-2.994-69.841-6.623-154.461-16.987-238.206-13.802-111.536,5.718-183.389,20.697-219.516,1.42-.135,2.85-.265,4.289-.388Z"/>
        </g>
        <path class="cls-10" d="M1413.532,520.788c15.715,103.134,11.783,190.555,11.783,190.555l148.843-145.651,119.79,81.801c-89.289,113.102-160.491,324.107-337.887,387.97-73.666,26.521-139.477-64.826-160.103-131.617-20.625-66.791-86.437-271.095-58.935-359.494,70.252-225.804,256.462-155.118,276.508-23.564Z"/>
        <path class="cls-16" d="M1449.823,676.158c-40.528,27.696-305.091,140.937-305.091,118.761,0-8.998-71.496-226.453-12.839-317.776,58.657-91.323,116.671-117.451,184.322-100.453,67.651,16.997,155.922,110.083,133.608,299.468Z"/>
        <path class="cls-1" d="M1323.949,373.321l-229.346-52.555s-30.452,12.284-30.943,23.088,19.648,45.669,19.648,45.669l227.627,26.277s-8.595-34.131,13.015-42.48Z"/>
        <path class="cls-11" d="M1094.602,320.766l-495.725-93.47c-31.859,13.962-50.824,93.429,6.224,120.248l203.982,19.055,38.413,2.952,4.014-.184,231.798,20.156s-26.52-44.2,11.295-68.757Z"/>
        <path class="cls-11" d="M1323.949,373.321l220.017,40.517-14.241,39.781-218.79-37.817s-24.31-29.465,13.015-42.48Z"/>
        <path class="cls-10" d="M746.251,471.623s8.087-16.472-2.717-32.186c-31.654-46.043-75.155-55.662-90.515-129.935-5.171-25.008-2.619-42.059,1.618-47.355,5.892-7.365,11.051-1.718,11.051-1.718,0,0,16.942-34.38,30.939-33.889,13.997.491,8.84,6.63,8.84,6.63,0,0,11.787-11.051,24.801-8.595,13.015,2.456,7.014,8.724,7.014,8.724,0,0,12.14-1.601,12.631,6.01.491,7.612-1.964,22.101-9.085,34.624-7.121,12.523,6.385,45.918,22.1,65.071,28.384,34.593,47.599,26.08,88.619,30.367-1.815,22.441-11.46,94.311-23.178,111.504-10.572,15.51-22.507,20.14-22.507,20.14,0,0-63.561,10.496-59.609-29.393Z"/>
        <path class="cls-17" d="M689.011,356.738c-1.338,0-2.639-.699-3.349-1.947-.835-1.465-20.486-36.123-24.491-55.9-4.058-20.033.585-38.634.784-39.416.527-2.059,2.628-3.288,4.68-2.779,2.061.525,3.307,2.621,2.785,4.682-.045.174-4.396,17.731-.701,35.984,3.765,18.579,23.438,53.27,23.635,53.618,1.053,1.848.408,4.2-1.44,5.252-.602.343-1.257.506-1.903.506Z"/>
        <path class="cls-17" d="M702.023,345.934c-1.398,0-2.746-.763-3.428-2.091-.931-1.81-22.786-44.629-22.282-70.838.528-27.393,26.133-42.538,27.223-43.168,1.843-1.064,4.199-.436,5.263,1.401,1.066,1.84.439,4.196-1.4,5.263-.387.227-22.942,13.736-23.384,36.652-.465,24.267,21.212,66.742,21.431,67.169.972,1.892.226,4.213-1.666,5.185-.563.29-1.165.428-1.757.428Z"/>
        <path class="cls-17" d="M718.712,344.795c-1.585,0-3.067-.984-3.628-2.563-2.881-8.097-6.125-18.449-9.647-30.769-16.4-57.406,29.644-81.367,30.111-81.603,1.904-.95,4.219-.191,5.174,1.707s.194,4.21-1.699,5.169h0c-1.674.853-40.794,21.455-26.179,72.612,3.476,12.164,6.672,22.359,9.496,30.305.713,2.003-.334,4.207-2.338,4.918-.426.152-.862.224-1.29.224Z"/>
        <g>
          <path class="cls-11" d="M1690.052,494.48s33.399,14.25,45.922-29.706c12.523-43.955-9.336-70.733-24.803-69.99-15.468.743-23.818,14.74-31.92,24.316-8.103,9.578-23.082,33.888,10.802,75.38Z"/>
          <path class="cls-2" d="M1702.285,497.013c-7.059,0-12.288-2.179-12.369-2.215l-.135-.099c-30.421-37.256-22.663-61.797-10.796-75.823,1.26-1.491,2.508-3.064,3.827-4.73,7.091-8.94,15.128-19.074,28.34-19.709,6.025-.265,12.83,3.545,18.153,10.258,11.125,14.021,13.742,36.517,7,60.175-4.222,14.822-11.256,24.671-20.911,29.274-4.551,2.172-9.122,2.868-13.109,2.868ZM1690.264,494.194c1.072.426,13.021,4.964,24.842-.677,9.46-4.515,16.369-14.217,20.535-28.837,6.677-23.444,4.106-45.706-6.877-59.555-5.006-6.308-11.3-10.009-16.965-10.009-.207,0-.411.005-.614.014-12.896.619-20.826,10.622-27.826,19.447-1.326,1.671-2.577,3.249-3.846,4.747-16.758,19.811-13.04,45.698,10.752,74.869Z"/>
        </g>
        <g>
          <path class="cls-16" d="M1696.934,393.307c-50.254-3.345-72.18,102.125-16.811,101.318l9.928-.145c-20.196-34.077-22.227-67.588,21.118-99.696l-14.236-1.477Z"/>
          <path class="cls-2" d="M1679.503,494.976c-12.081,0-21.347-5.149-26.829-14.919-9.178-16.369-6.376-44.123,6.523-64.557,9.783-15.504,23.212-23.499,37.76-22.538l.013.002,15.125,1.569-.718.531c-37.854,28.042-44.533,59.577-21.027,99.24l.304.516-10.523.152c-.21.003-.42.005-.627.005ZM1694.602,393.577c-13.407,0-25.698,7.84-34.819,22.292-12.774,20.237-15.57,47.685-6.504,63.849,5.351,9.537,14.41,14.565,26.227,14.565.204,0,.408-.002.611-.005l9.332-.136c-23.218-39.538-16.601-71.063,20.801-99.104l-13.347-1.386c-.768-.05-1.539-.075-2.301-.075Z"/>
        </g>
        <path class="cls-10" d="M1616.155,356.227s1.964-8.347-9.577-10.067c-11.541-1.719-36.098,10.068-49.848,23.083-13.751,13.015-33.082,45.714-33.976,66.319-.893,20.606,12.116,58.181,28.813,80.773,16.698,22.591,17.434,25.046,17.434,25.046l5.155,24.311,24.61,93.919,95.18-12.118c2.6-.331,2.69-4.421,3.957-6.564,41.003-69.391,27.698-93.389-20.613-151.36-12.279-14.732-27.014-60.901-5.896-79.072,21.118-18.171,25.538-17.189,25.538-17.189,0,0-10.559-9.333-18.171-14.734-7.612-5.403-21.611,2.456-21.611,2.456,0,0-3.192-8.839-9.821-11.05-6.63-2.21-12.279-.737-12.279-.737,0,0-7.121-14.241-18.897-13.016Z"/>
        <path class="cls-17" d="M1569.243,408.945c-.47,0-.95-.086-1.414-.268-1.978-.781-2.95-3.016-2.169-4.993.27-.683,6.73-16.916,18.977-32.409,12.852-16.259,30.271-18.765,31.004-18.866,2.091-.27,4.047,1.196,4.332,3.305.282,2.103-1.191,4.039-3.294,4.327-.188.028-15.159,2.296-25.999,16.01-11.513,14.563-17.792,30.298-17.855,30.454-.599,1.516-2.05,2.439-3.583,2.439Z"/>
        <path class="cls-17" d="M1593.799,430.555c-.379,0-.768-.056-1.15-.177-2.031-.635-3.16-2.795-2.527-4.826.326-1.039,8.043-25.591,14.817-37.133,7.138-12.158,27.556-22.215,28.422-22.638,1.915-.931,4.216-.138,5.15,1.773.934,1.912.141,4.218-1.771,5.15-.191.094-19.2,9.465-25.155,19.615-6.329,10.782-14.034,35.288-14.109,35.534-.517,1.647-2.038,2.702-3.677,2.702Z"/>
        <path class="cls-17" d="M1623.76,455.111c-.238,0-.48-.022-.724-.069-2.088-.398-3.461-2.415-3.063-4.504.502-2.636.602-6.478.721-10.927.282-10.724.63-24.071,6.583-35.333,9.993-18.922,27.641-26.488,28.387-26.799,1.965-.826,4.219.103,5.04,2.063.821,1.961-.1,4.214-2.059,5.039-.282.122-15.927,6.957-24.56,23.296-5.106,9.669-5.432,22.016-5.692,31.937-.125,4.785-.235,8.916-.853,12.167-.351,1.846-1.965,3.131-3.78,3.131Z"/>
        <path class="cls-9" d="M1425.738,689.784s-68.732,62.421-130.522,96.137c-61.79,33.717-81.049,37.729-81.049,37.729,0,0,17.654,182.159,119.567,179.752,101.913-2.408,286.759-243.294,286.759-243.294,0,0-72.501,142.183-128.674,191.134-56.173,48.95-118.764,117.962-207.838,87.468-89.073-30.494-126.667-241.56-126.667-241.56l268.424-107.366Z"/>
        <path class="cls-4" d="M1174.671,232.383s-11.071-6.356-18.494,4.276c-7.423,10.633-5.822,17.947.901,22.716,6.722,4.769,12.741,5.17,12.741,5.17,0,0-11.235,2.408-9.229,10.633,2.006,8.225,23.472,11.635,23.472,11.635,0,0-5.616-1.403-2.808-11.434,2.808-10.031-1.404-19.661-7.022-23.673-5.618-4.012.439-19.323.439-19.323Z"/>
        <path class="cls-12" d="M869.583,1101.695c191.625,31.924,313.626,41.825,510.996,31.865l6.503,45.551s-178.284,19.45-347.604-7.031c-169.32-26.482-168.433-38.734-168.433-38.734l-1.463-31.651Z"/>
        <path class="cls-16" d="M1022.373,1113.183l19.417,1.161c3.032.181,5.363,2.809,5.182,5.841l-3.794,63.474c-.181,3.032-2.809,5.363-5.84,5.182l-19.417-1.161c-3.032-.181-5.363-2.809-5.182-5.841l3.794-63.474c.181-3.032,2.809-5.363,5.841-5.182Z"/>
        <path class="cls-16" d="M1171.632,1126.938l19.43-.936c3.033-.147,5.634,2.215,5.779,5.248l3.062,63.515c.146,3.033-2.215,5.633-5.248,5.78l-19.43.936c-3.033.146-5.634-2.216-5.78-5.248l-3.062-63.515c-.147-3.033,2.215-5.633,5.248-5.78Z"/>
        <path class="cls-16" d="M887.084,1096.704l14.387.611c2.247.095,4.005,2.011,3.91,4.256l-2.002,47.03c-.095,2.247-2.01,4.005-4.256,3.909l-14.387-.612c-2.246-.095-4.005-2.01-3.91-4.256l2.002-47.029c.096-2.247,2.01-4.006,4.257-3.909Z"/>
        <path class="cls-16" d="M1334.934,1120.919l19.43-.936c3.032-.146,5.634,2.216,5.779,5.248l3.062,63.515c.146,3.033-2.216,5.633-5.248,5.78l-19.43.936c-3.033.147-5.634-2.215-5.78-5.248l-3.062-63.515c-.146-3.033,2.216-5.633,5.248-5.78Z"/>
        <path class="cls-8" d="M1184.459,1338.562l-85.851-32.506,7.293-42.841,183.311,4.166-17.037,53.803-87.716,17.378ZM1105.536,1302.088l79.456,30.086,82.406-16.325,13.457-42.493-169.772-3.859-5.547,32.591Z"/>
        <path class="cls-1" d="M1126.856,722.099s20.634-16.053,138.616-52.114c117.982-36.061,188.389-55.422,188.389-55.422l-1.043,25.651s-128.608,33.879-209.816,68.288c-81.208,34.409-107.291,50.699-107.291,50.699l-8.856-37.103Z"/>
        <path class="cls-2" d="M890.801,1164.105c-1.003,0-2.052-.097-3.146-.292-2.867-.508-5.108-1.981-6.664-4.382-4.807-7.407-1.458-21.149-1.313-21.732l1.558.389c-.034.135-3.326,13.651,1.102,20.472,1.306,2.009,3.188,3.247,5.597,3.674,3.881.683,7.101.025,9.568-1.956,4.689-3.774,5.667-11.319,5.834-15.479l1.605.063c-.177,4.435-1.248,12.495-6.432,16.667-2.13,1.715-4.714,2.577-7.708,2.577Z"/>
        <path class="cls-2" d="M1027.279,1197.975c-1.288,0-2.636-.132-4.041-.401-3.484-.661-6.244-2.527-8.205-5.539-6.545-10.05-2.124-29.528-1.932-30.352l1.564.364c-.045.194-4.459,19.638,1.713,29.117,1.715,2.63,4.124,4.257,7.161,4.837,4.866.912,8.954.107,12.142-2.429,6.503-5.182,7.849-16.068,8.073-22.099l1.605.063c-.235,6.301-1.674,17.711-8.678,23.29-2.632,2.097-5.783,3.15-9.402,3.15Z"/>
        <path class="cls-2" d="M1183.415,1212.206c-.323,0-.652-.006-.981-.019-3.545-.141-6.548-1.577-8.934-4.266-7.956-8.974-6.454-28.892-6.385-29.738l1.599.129c-.016.201-1.514,20.083,5.99,28.547,2.081,2.348,4.705,3.602,7.793,3.724,4.975.197,8.874-1.21,11.651-4.188,5.667-6.081,5.395-17.052,4.73-23.049l1.592-.176c.699,6.269.956,17.767-5.15,24.318-2.918,3.135-6.921,4.718-11.905,4.718Z"/>
        <path class="cls-2" d="M1346.691,1205.347c-.323,0-.649-.006-.978-.019-3.545-.141-6.548-1.577-8.934-4.266-7.956-8.974-6.454-28.892-6.385-29.738l1.599.129c-.016.201-1.514,20.083,5.99,28.547,2.081,2.348,4.705,3.602,7.793,3.724,4.987.197,8.874-1.21,11.651-4.191,5.667-6.081,5.395-17.049,4.73-23.046l1.592-.176c.699,6.269.956,17.764-5.147,24.315-2.921,3.135-6.924,4.721-11.912,4.721Z"/>
      </g>
      <g>
        <rect class="cls-15" x="182.042" y="1359.858" width="1863.317" height="25.679"/>
        <path class="cls-2" d="M2046.162,1386.34H181.239v-27.284h1864.923v27.284ZM182.844,1384.735h1861.713v-24.074H182.844v24.074Z"/>
      </g>
    </g>
  </g>
</svg>